<?xml version="1.0" encoding="utf-8"?>
<svg viewBox="0 0 64 64" width="64px" height="64px" xmlns="http://www.w3.org/2000/svg">
  <g transform="matrix(0.062891, 0, 0, 0.046924, -30.469725, 1.852188)" style="fill: rgb(240,240,255);">
    <path d="M 991.37 917.58 C 1107.23 917.58 1201.49 817.14 1201.49 693.68 L 1201.49 261.82 C 1201.49 138.36 1107.229 37.92 991.37 37.92 C 875.511 37.92 781.25 138.36 781.25 261.82 L 781.25 693.68 C 781.25 817.14 875.511 917.58 991.37 917.58 Z"/>
    <path d="m1258.3 471.93c-10.961 0-19.848 8.885-19.848 19.847v278.83c0 47.7-25.066 93.049-70.579 127.69-47.127 35.871-109.81 55.626-176.49 55.626s-129.36-19.755-176.49-55.626c-45.515-34.644-70.581-79.992-70.581-127.69v-278.83c0-10.962-8.885-19.847-19.847-19.847s-19.847 8.885-19.847 19.847v278.83c0 117.78 118.02 214.52 266.92 222.47v179.29h-112.84v39.696h265.38v-39.696h-112.84v-179.29c148.9-7.956 266.92-104.69 266.92-222.47v-278.83c0-10.962-8.886-19.847-19.847-19.847z"/>
  </g>
</svg>
